<?xml version="1.0" encoding="utf-8"?>
<!-- Generator: Adobe Illustrator 27.4.0, SVG Export Plug-In . SVG Version: 6.00 Build 0)  -->
<svg version="1.1" id="Layer_2_00000072239051449135333880000018097495048797398684_"
	 xmlns="http://www.w3.org/2000/svg" xmlns:xlink="http://www.w3.org/1999/xlink" x="0px" y="0px" viewBox="0 0 57 57.7"
	 style="enable-background:new 0 0 57 57.7;" xml:space="preserve">
<style type="text/css">
	.st0{fill:#87BD42;}
</style>
<g id="Layer_1-2">
	<g>
		<g>
			<path class="st0" d="M35.6,0c2,1.8,4.2,3.5,5.5,6c0.7,2.1,0.7,4.3,1.1,6.5c0.3-1.9,0.4-3.8,0.5-5.6c1.6,1.7,3.1,3.5,3.7,5.9
				c0.7,2-0.6,3.8-1.1,5.6c1-1.1,1.9-2.3,2.8-3.3c1.9,3.1,2.5,6.7,3.7,10.1c-0.2-3-0.8-6-1.8-8.8c-1.5-2.5-3-5-4.4-7.6
				c1-0.4,1.9-0.7,2.9-1c-1.1,0-2.2,0.1-3.2,0.1c-2.4-2.3-4.8-4.8-7-7.4c3.9,0.1,7.9,1,10.5,4.1c6,6.7,5.8,17.1,2.9,25.1
				c-2.8-3.9-6.2-7.5-10.4-9.9c-2.7-1.7-6.2-3-7.3-6.3c-1.4-3.8,0.5-7.5,1.8-11c-1.3-0.4-2.7-0.9-4-1.4c0,8.9-0.1,17.9,0.1,26.8
				c4.8,0.5,10,1.1,14.2,3.9c3.2,2,2.2,6.2,1.7,9.3c-1.6,7.6-7.6,13.5-14.5,16.6c7.9,0.1,15.8-0.1,23.7,0.1V0H35.6
				C35.6,0,35.6,0,35.6,0z"/>
			<path class="st0" d="M45.7,33c-4.1-2.6-9.1-3.2-13.8-3.8C31.8,33,31.6,37,32,40.8c4.7-0.8,9.8-1.2,13.8-4.1
				C47.3,35.9,47.1,33.7,45.7,33L45.7,33L45.7,33z M5.2,33.3c-1.8,1.2-0.3,3.5,1.2,4.2c4.8,2.6,10.4,3.1,15.8,3.5
				c-0.8-3.9-1.5-7.9-2.5-11.8C14.7,29.9,9.3,30.3,5.2,33.3L5.2,33.3L5.2,33.3z M25.4,29c1.1,3.9,2,7.8,3.9,11.4
				c0.1-3.7,0-7.4,0.1-11.1C28.1,29.2,26.8,29,25.4,29z"/>
		</g>
		<path class="st0" d="M25.3,0H4.2v0H0v57.6c7.9-0.2,10,0,18-0.1C11.1,54.5,5,48.7,3.4,41c-0.5-3.1-1.6-7.3,1.7-9.3
			c0.3-0.2,0.7-0.4,1-0.6c3.2-1.5,6.5-2.3,9.9-2.9c1.1-0.1,2.2-0.3,3.2-0.4c0,0-0.1-0.1-0.1-0.1c0.1,0,0.1,0,0.2,0
			c-0.8-3.2-2.1-6.4-3.3-9.4c2-1.3,4.2-2,6.5-1.6c0.5,3.7,1.1,7.3,2.2,10.9c1.4,0.1,3,0.1,4.4,0.1c0.1-9.2,0-18.5,0.1-27.7L25.3,0
			L25.3,0L25.3,0z"/>
	</g>
</g>
</svg>
