<?xml version="1.0" encoding="utf-8"?>
<!-- Generator: Adobe Illustrator 27.4.0, SVG Export Plug-In . SVG Version: 6.00 Build 0)  -->
<svg version="1.1" xmlns="http://www.w3.org/2000/svg" xmlns:xlink="http://www.w3.org/1999/xlink" x="0px" y="0px"
	 viewBox="0 0 500 500" style="enable-background:new 0 0 500 500;" xml:space="preserve">
<style type="text/css">
	.st0{display:none;}
	.st1{display:inline;fill:#45ACBD;}
	.st2{fill:#87BD42;}
	.st3{fill:#D3E5F1;}
	.st4{fill:#59B7D0;}
	.st5{fill:#FFFFFF;}
	.st6{font-family:'Cambria';}
	.st7{font-size:30.8396px;}
	.st8{fill:#FFB08F;}
	.st9{fill:#4F346B;}
	.st10{fill:#402C5B;}
	.st11{fill:#FB937A;}
	.st12{fill:#70313C;}
	.st13{fill:#7F3D4B;}
	.st14{fill:#FF7573;}
	.st15{fill:#232055;}
	.st16{fill:#F86666;}
	.st17{fill:#D65166;}
	.st18{fill:#272763;}
	.st19{fill:#172765;}
	.st20{fill:#41458C;}
	.st21{fill:#A7C4D3;}
	.st22{fill:#C4E3F5;}
	.st23{fill:#51CADF;}
	.st24{font-family:'BebasNeueBold';}
	.st25{font-size:24.5809px;}
	.st26{fill:#BACED8;}
</style>
<g id="BACKGROUND" class="st0">
	<rect class="st1" width="500" height="500"/>
</g>
<g id="OBJECTS">
	<g>
		<path class="st2" d="M402.7,272.2c0,38.6-14.3,73.9-38,100.8c-4.6,5.2-9.5,10.1-14.8,14.7H150.1c-5.3-4.6-10.2-9.5-14.8-14.7
			c-23.7-26.9-38-62.2-38-100.8c0-84.4,68.4-152.7,152.7-152.7S402.7,187.9,402.7,272.2z"/>
		<path class="st2" d="M106.5,380.3C82.9,349,70.4,311.6,70.4,272.2c0-99.1,80.6-179.6,179.6-179.6c99.1,0,179.6,80.6,179.6,179.6
			c0,39.3-12.4,76.6-36,107.9l-0.8-0.6c23.4-31.1,35.8-68.2,35.8-107.3c0-98.5-80.1-178.6-178.6-178.6
			c-98.5,0-178.6,80.1-178.6,178.6c0,39.2,12.4,76.3,36,107.5L106.5,380.3z"/>
		<g>
			<path class="st2" d="M86.5,380.6c-0.4-0.6-0.7-1.1-1.1-1.7l0.8-0.5c0.4,0.6,0.7,1.1,1.1,1.7L86.5,380.6z"/>
			<path class="st2" d="M83.2,375.6c-0.7-1.1-1.4-2.3-2.1-3.4l0.9-0.5c0.7,1.1,1.4,2.3,2.1,3.4L83.2,375.6z M417.4,374.5l-0.9-0.5
				c0.7-1.1,1.4-2.3,2.1-3.4l0.9,0.5C418.8,372.2,418.1,373.4,417.4,374.5z M79.1,368.6c-0.7-1.2-1.3-2.3-1.9-3.5l0.9-0.5
				c0.6,1.2,1.3,2.3,1.9,3.5L79.1,368.6z M421.5,367.6l-0.9-0.5c0.6-1.2,1.3-2.3,1.9-3.5l0.9,0.5
				C422.8,365.2,422.1,366.4,421.5,367.6z M75.3,361.6c-0.6-1.2-1.2-2.4-1.8-3.6l0.9-0.4c0.6,1.2,1.2,2.4,1.8,3.6L75.3,361.6z
				 M425.2,360.4l-0.9-0.5c0.6-1.2,1.2-2.4,1.8-3.6l0.9,0.4C426.4,358,425.8,359.2,425.2,360.4z M71.8,354.3
				c-0.6-1.2-1.1-2.4-1.6-3.7l0.9-0.4c0.5,1.2,1.1,2.4,1.6,3.6L71.8,354.3z M428.7,353.2l-0.9-0.4c0.6-1.2,1.1-2.4,1.6-3.7l0.9,0.4
				C429.8,350.7,429.3,352,428.7,353.2z M68.6,347c-0.5-1.2-1-2.5-1.5-3.7l0.9-0.4c0.5,1.2,1,2.5,1.5,3.7L68.6,347z M431.9,345.8
				l-0.9-0.4c0.5-1.2,1-2.5,1.5-3.7l0.9,0.4C432.9,343.3,432.4,344.5,431.9,345.8z M65.7,339.5c-0.5-1.3-0.9-2.5-1.3-3.8l0.9-0.3
				c0.4,1.3,0.9,2.5,1.3,3.8L65.7,339.5z M434.8,338.3l-0.9-0.3c0.5-1.3,0.9-2.5,1.3-3.8l0.9,0.3C435.7,335.7,435.2,337,434.8,338.3
				z M63.1,331.8c-0.4-1.3-0.8-2.6-1.2-3.8l1-0.3c0.4,1.3,0.8,2.6,1.2,3.8L63.1,331.8z M437.3,330.6l-1-0.3c0.4-1.3,0.8-2.6,1.2-3.8
				l1,0.3C438.1,328.1,437.7,329.3,437.3,330.6z M60.8,324.1c-0.4-1.3-0.7-2.6-1-3.9l1-0.2c0.3,1.3,0.7,2.6,1,3.9L60.8,324.1z
				 M439.6,322.9l-1-0.3c0.3-1.3,0.7-2.6,1-3.9l1,0.2C440.2,320.3,439.9,321.6,439.6,322.9z M58.8,316.3c-0.3-1.3-0.6-2.6-0.9-3.9
				l1-0.2c0.3,1.3,0.6,2.6,0.9,3.9L58.8,316.3z M441.5,315.1l-1-0.2c0.3-1.3,0.6-2.6,0.8-3.9l1,0.2
				C442,312.4,441.8,313.8,441.5,315.1z M57.2,308.5c-0.2-1.3-0.5-2.6-0.7-4l1-0.2c0.2,1.3,0.5,2.6,0.7,3.9L57.2,308.5z
				 M443.1,307.2l-1-0.2c0.2-1.3,0.5-2.6,0.7-4l1,0.2C443.5,304.5,443.3,305.8,443.1,307.2z M55.9,300.5c-0.2-1.3-0.4-2.7-0.5-4
				l1-0.1c0.2,1.3,0.3,2.6,0.5,4L55.9,300.5z M444.3,299.2l-1-0.1c0.2-1.3,0.4-2.6,0.5-4l1,0.1C444.7,296.6,444.5,297.9,444.3,299.2
				z M54.9,292.6c-0.1-1.3-0.3-2.7-0.4-4l1-0.1c0.1,1.3,0.2,2.7,0.4,4L54.9,292.6z M445.3,291.2l-1-0.1c0.1-1.3,0.2-2.7,0.3-4l1,0.1
				C445.5,288.5,445.4,289.9,445.3,291.2z M54.2,284.6c-0.1-1.3-0.2-2.7-0.2-4l1,0c0.1,1.3,0.1,2.7,0.2,4L54.2,284.6z M445.9,283.2
				l-1-0.1c0.1-1.3,0.1-2.7,0.2-4l1,0C446,280.5,445.9,281.8,445.9,283.2z M53.9,276.5c0-1.3,0-2.7,0-4l1,0c0,1.3,0,2.7,0,4
				L53.9,276.5z M446.1,275.1l-1,0c0-1,0-1.9,0-2.9l0-1.1l1,0l0,1.1C446.2,273.2,446.2,274.2,446.1,275.1z M54.9,268.5l-1,0
				c0-1.3,0.1-2.7,0.1-4l1,0C54.9,265.8,54.9,267.2,54.9,268.5z M445.1,267.1c0-1.3-0.1-2.7-0.1-4l1,0c0.1,1.3,0.1,2.7,0.1,4
				L445.1,267.1z M55.2,260.5l-1-0.1c0.1-1.3,0.2-2.7,0.3-4l1,0.1C55.4,257.8,55.3,259.2,55.2,260.5z M444.7,259.1
				c-0.1-1.3-0.2-2.7-0.3-4l1-0.1c0.1,1.3,0.2,2.7,0.3,4L444.7,259.1z M55.8,252.5l-1-0.1c0.1-1.3,0.3-2.7,0.4-4l1,0.1
				C56.1,249.9,56,251.2,55.8,252.5z M444,251.1c-0.1-1.3-0.3-2.7-0.5-4l1-0.1c0.2,1.3,0.3,2.7,0.5,4L444,251.1z M56.8,244.6l-1-0.1
				c0.2-1.3,0.4-2.7,0.6-4l1,0.2C57.2,241.9,57,243.3,56.8,244.6z M443,243.2c-0.2-1.3-0.4-2.6-0.6-4l1-0.2c0.2,1.3,0.4,2.6,0.6,4
				L443,243.2z M58.1,236.7l-1-0.2c0.2-1.3,0.5-2.6,0.8-3.9l1,0.2C58.6,234.1,58.3,235.4,58.1,236.7z M441.7,235.3
				c-0.3-1.3-0.5-2.6-0.8-3.9l1-0.2c0.3,1.3,0.5,2.6,0.8,3.9L441.7,235.3z M59.7,228.8l-1-0.2c0.3-1.3,0.6-2.6,0.9-3.9l1,0.2
				C60.3,226.2,60,227.5,59.7,228.8z M440,227.5c-0.3-1.3-0.6-2.6-1-3.9l1-0.2c0.3,1.3,0.7,2.6,1,3.9L440,227.5z M61.6,221.1l-1-0.3
				c0.4-1.3,0.7-2.6,1.1-3.9l1,0.3C62.3,218.5,62,219.8,61.6,221.1z M438,219.7c-0.4-1.3-0.7-2.6-1.1-3.8l1-0.3
				c0.4,1.3,0.8,2.6,1.1,3.9L438,219.7z M63.9,213.4l-1-0.3c0.4-1.3,0.8-2.6,1.3-3.8l0.9,0.3C64.7,210.8,64.3,212.1,63.9,213.4z
				 M435.7,212c-0.4-1.3-0.8-2.5-1.3-3.8l0.9-0.3c0.4,1.3,0.9,2.5,1.3,3.8L435.7,212z M66.4,205.8l-0.9-0.3c0.5-1.3,0.9-2.5,1.4-3.8
				l0.9,0.4C67.4,203.3,66.9,204.5,66.4,205.8z M433.1,204.5c-0.5-1.3-0.9-2.5-1.4-3.7l0.9-0.4c0.5,1.2,1,2.5,1.4,3.8L433.1,204.5z
				 M69.3,198.3l-0.9-0.4c0.5-1.2,1-2.5,1.6-3.7l0.9,0.4C70.3,195.8,69.8,197.1,69.3,198.3z M430.2,197.1c-0.5-1.2-1-2.4-1.6-3.7
				l0.9-0.4c0.5,1.2,1.1,2.4,1.6,3.7L430.2,197.1z M72.5,190.9l-0.9-0.4c0.6-1.2,1.1-2.4,1.7-3.6l0.9,0.4
				C73.6,188.5,73.1,189.7,72.5,190.9z M426.9,189.8c-0.6-1.2-1.1-2.4-1.7-3.6l0.9-0.4c0.6,1.2,1.2,2.4,1.7,3.6L426.9,189.8z
				 M76,183.7l-0.9-0.5c0.6-1.2,1.2-2.4,1.9-3.6l0.9,0.5C77.2,181.3,76.6,182.5,76,183.7z M423.4,182.6c-0.6-1.2-1.2-2.4-1.9-3.5
				l0.9-0.5c0.6,1.2,1.3,2.4,1.9,3.5L423.4,182.6z M79.8,176.6l-0.9-0.5c0.7-1.2,1.3-2.3,2-3.5l0.9,0.5
				C81.1,174.3,80.5,175.5,79.8,176.6z M419.6,175.6c-0.7-1.2-1.3-2.3-2-3.4l0.9-0.5c0.7,1.1,1.4,2.3,2,3.5L419.6,175.6z
				 M83.9,169.7l-0.9-0.5c0.7-1.1,1.4-2.3,2.2-3.4l0.8,0.5C85.3,167.5,84.6,168.6,83.9,169.7z M415.5,168.7
				c-0.7-1.1-1.4-2.3-2.2-3.4l0.8-0.5c0.7,1.1,1.5,2.2,2.2,3.4L415.5,168.7z M88.2,163l-0.8-0.6c0.8-1.1,1.5-2.2,2.3-3.3l0.8,0.6
				C89.7,160.8,89,161.9,88.2,163z M411.1,162c-0.8-1.1-1.5-2.2-2.3-3.3l0.8-0.6c0.8,1.1,1.5,2.2,2.3,3.3L411.1,162z M92.9,156.5
				l-0.8-0.6c0.8-1.1,1.6-2.2,2.4-3.2l0.8,0.6C94.4,154.3,93.6,155.4,92.9,156.5z M406.5,155.5c-0.8-1.1-1.6-2.1-2.4-3.2l0.8-0.6
				c0.8,1.1,1.6,2.1,2.4,3.2L406.5,155.5z M97.7,150.1l-0.8-0.6c0.8-1,1.7-2.1,2.6-3.1l0.8,0.6C99.4,148,98.6,149.1,97.7,150.1z
				 M401.6,149.2c-0.8-1-1.7-2.1-2.6-3.1l0.8-0.6c0.9,1,1.7,2.1,2.6,3.1L401.6,149.2z M102.9,144l-0.8-0.7c0.9-1,1.8-2,2.7-3
				l0.7,0.7C104.6,142,103.8,143,102.9,144z M396.4,143.1c-0.9-1-1.8-2-2.7-3l0.7-0.7c0.9,1,1.8,2,2.7,3L396.4,143.1z M108.3,138
				l-0.7-0.7c0.9-1,1.9-1.9,2.8-2.9l0.7,0.7C110.1,136.1,109.2,137.1,108.3,138z M391,137.2c-0.9-1-1.9-1.9-2.8-2.9l0.7-0.7
				c0.9,0.9,1.9,1.9,2.8,2.9L391,137.2z M113.9,132.4l-0.7-0.7c1-0.9,1.9-1.9,2.9-2.8l0.7,0.7C115.8,130.5,114.8,131.4,113.9,132.4z
				 M385.3,131.6c-1-0.9-1.9-1.8-2.9-2.7l0.7-0.7c1,0.9,2,1.8,2.9,2.8L385.3,131.6z M119.7,126.9l-0.7-0.7c1-0.9,2-1.8,3-2.7
				l0.7,0.8C121.7,125.1,120.7,126,119.7,126.9z M379.4,126.1c-1-0.9-2-1.8-3-2.6l0.6-0.8c1,0.9,2,1.7,3,2.6L379.4,126.1z
				 M125.8,121.7l-0.6-0.8c1-0.9,2.1-1.7,3.1-2.5l0.6,0.8C127.9,120,126.8,120.8,125.8,121.7z M373.3,121c-1-0.8-2.1-1.7-3.1-2.5
				l0.6-0.8c1.1,0.8,2.1,1.7,3.1,2.5L373.3,121z M132.1,116.7l-0.6-0.8c1.1-0.8,2.1-1.6,3.2-2.4l0.6,0.8
				C134.2,115.1,133.1,115.9,132.1,116.7z M367,116c-1.1-0.8-2.1-1.6-3.2-2.4l0.6-0.8c1.1,0.8,2.2,1.6,3.2,2.4L367,116z M138.5,112
				l-0.6-0.8c1.1-0.8,2.2-1.5,3.3-2.3l0.6,0.8C140.7,110.5,139.6,111.2,138.5,112z M360.5,111.3c-1.1-0.8-2.2-1.5-3.3-2.2l0.6-0.8
				c1.1,0.7,2.2,1.5,3.3,2.2L360.5,111.3z M145.2,107.6l-0.5-0.8c1.1-0.7,2.3-1.4,3.4-2.1l0.5,0.9
				C147.4,106.1,146.3,106.8,145.2,107.6z M353.8,106.9c-1.1-0.7-2.3-1.4-3.4-2.1l0.5-0.9c1.2,0.7,2.3,1.4,3.4,2.1L353.8,106.9z
				 M152,103.4l-0.5-0.9c1.2-0.7,2.3-1.3,3.5-2l0.5,0.9C154.3,102.1,153.1,102.7,152,103.4z M347,102.8c-1.2-0.7-2.3-1.3-3.5-2
				l0.5-0.9c1.2,0.6,2.4,1.3,3.5,2L347,102.8z M159,99.5l-0.5-0.9c1.2-0.6,2.4-1.2,3.6-1.8l0.4,0.9C161.3,98.3,160.1,98.9,159,99.5z
				 M339.9,99c-1.2-0.6-2.4-1.2-3.6-1.8l0.4-0.9c1.2,0.6,2.4,1.2,3.6,1.8L339.9,99z M166.1,96l-0.4-0.9c1.2-0.6,2.4-1.1,3.6-1.7
				l0.4,0.9C168.5,94.8,167.3,95.4,166.1,96z M332.7,95.4c-1.2-0.6-2.4-1.1-3.7-1.7l0.4-0.9c1.2,0.5,2.5,1.1,3.7,1.7L332.7,95.4z
				 M173.4,92.7l-0.4-0.9c1.2-0.5,2.5-1,3.7-1.5l0.4,0.9C175.8,91.6,174.6,92.1,173.4,92.7z M325.4,92.1c-1.2-0.5-2.5-1-3.7-1.5
				l0.4-0.9c1.3,0.5,2.5,1,3.7,1.5L325.4,92.1z M180.8,89.7l-0.4-0.9c1.3-0.5,2.5-0.9,3.8-1.4l0.3,0.9
				C183.3,88.7,182,89.2,180.8,89.7z M317.9,89.2c-1.3-0.5-2.5-0.9-3.8-1.4l0.3-0.9c1.3,0.4,2.5,0.9,3.8,1.4L317.9,89.2z M188.3,87
				L188,86c1.3-0.4,2.5-0.8,3.8-1.2l0.3,1C190.9,86.2,189.6,86.6,188.3,87z M310.3,86.6c-1.3-0.4-2.6-0.8-3.8-1.2l0.3-1
				c1.3,0.4,2.6,0.8,3.9,1.2L310.3,86.6z M196,84.6l-0.3-1c1.3-0.4,2.6-0.7,3.9-1.1l0.3,1C198.5,83.9,197.2,84.3,196,84.6z
				 M302.7,84.2c-1.3-0.4-2.6-0.7-3.9-1l0.2-1c1.3,0.3,2.6,0.7,3.9,1L302.7,84.2z M203.7,82.6l-0.2-1c1.3-0.3,2.6-0.6,3.9-0.9l0.2,1
				C206.3,82,205,82.3,203.7,82.6z M294.9,82.2c-1.3-0.3-2.6-0.6-3.9-0.9l0.2-1c1.3,0.3,2.6,0.6,3.9,0.9L294.9,82.2z M211.5,80.8
				l-0.2-1c1.3-0.3,2.6-0.5,4-0.7l0.2,1C214.1,80.3,212.8,80.6,211.5,80.8z M287.1,80.6c-1.3-0.3-2.6-0.5-3.9-0.7l0.2-1
				c1.3,0.2,2.6,0.5,4,0.7L287.1,80.6z M219.4,79.4l-0.2-1c1.3-0.2,2.6-0.4,4-0.6l0.1,1C222,79,220.7,79.2,219.4,79.4z M279.2,79.2
				c-1.3-0.2-2.6-0.4-4-0.6l0.1-1c1.3,0.2,2.7,0.4,4,0.6L279.2,79.2z M227.3,78.3l-0.1-1c1.3-0.2,2.7-0.3,4-0.4l0.1,1
				C230,78.1,228.7,78.2,227.3,78.3z M271.3,78.2c-1.3-0.1-2.7-0.3-4-0.4l0.1-1c1.3,0.1,2.7,0.2,4,0.4L271.3,78.2z M235.3,77.6
				l-0.1-1c1.3-0.1,2.7-0.2,4-0.3l0.1,1C238,77.4,236.6,77.5,235.3,77.6z M263.3,77.5c-1.3-0.1-2.7-0.2-4-0.2l0-1
				c1.3,0.1,2.7,0.1,4,0.2L263.3,77.5z M243.3,77.2l0-1c1.3,0,2.7-0.1,4-0.1l0,1C245.9,77.1,244.6,77.1,243.3,77.2z M255.3,77.1
				c-1.3,0-2.7-0.1-4-0.1l0-1c1.3,0,2.7,0,4,0.1L255.3,77.1z"/>
			<path class="st2" d="M414.1,379.7l-0.8-0.5c0.4-0.6,0.7-1.1,1.1-1.7l0.8,0.5C414.8,378.6,414.5,379.2,414.1,379.7z"/>
		</g>
		<g>
			<path class="st2" d="M124.9,381.2c-0.4-0.5-0.9-1-1.3-1.5l0.8-0.6c0.4,0.5,0.9,1,1.3,1.5L124.9,381.2z"/>
			<path class="st2" d="M121,376.5c-0.8-1-1.7-2.1-2.5-3.2l0.8-0.6c0.8,1.1,1.6,2.1,2.5,3.1L121,376.5z M380.6,374.5l-0.8-0.6
				c0.8-1,1.6-2.1,2.4-3.2l0.8,0.6C382.3,372.4,381.5,373.4,380.6,374.5z M116.1,370.2c-0.8-1.1-1.6-2.2-2.3-3.3l0.8-0.6
				c0.8,1.1,1.5,2.2,2.3,3.3L116.1,370.2z M385.4,368l-0.8-0.6c0.8-1.1,1.5-2.2,2.3-3.3l0.8,0.6C387,365.8,386.2,366.9,385.4,368z
				 M111.5,363.6c-0.7-1.1-1.5-2.2-2.2-3.4l0.8-0.5c0.7,1.1,1.4,2.3,2.2,3.4L111.5,363.6z M389.9,361.4l-0.8-0.5
				c0.7-1.1,1.4-2.3,2.1-3.4l0.9,0.5C391.4,359.1,390.7,360.2,389.9,361.4z M107.2,356.8c-0.7-1.2-1.4-2.3-2-3.5l0.9-0.5
				c0.7,1.2,1.3,2.3,2,3.5L107.2,356.8z M394.1,354.5l-0.9-0.5c0.7-1.2,1.3-2.3,1.9-3.5l0.9,0.5
				C395.4,352.1,394.8,353.3,394.1,354.5z M103.3,349.7c-0.6-1.2-1.2-2.4-1.8-3.6l0.9-0.4c0.6,1.2,1.2,2.4,1.8,3.6L103.3,349.7z
				 M397.9,347.4l-0.9-0.5c0.6-1.2,1.2-2.4,1.8-3.6l0.9,0.4C399.1,345,398.5,346.2,397.9,347.4z M99.7,342.5
				c-0.6-1.2-1.1-2.4-1.7-3.7l0.9-0.4c0.5,1.2,1.1,2.4,1.7,3.6L99.7,342.5z M401.4,340.1l-0.9-0.4c0.5-1.2,1.1-2.4,1.6-3.7l0.9,0.4
				C402.5,337.7,402,338.9,401.4,340.1z M96.5,335.2c-0.5-1.2-1-2.5-1.5-3.7l0.9-0.4c0.5,1.2,1,2.5,1.5,3.7L96.5,335.2z
				 M404.5,332.7l-0.9-0.4c0.5-1.2,1-2.5,1.4-3.7l0.9,0.3C405.5,330.2,405,331.4,404.5,332.7z M93.6,327.7c-0.4-1.3-0.9-2.5-1.3-3.8
				l1-0.3c0.4,1.3,0.8,2.5,1.3,3.8L93.6,327.7z M407.3,325.1l-0.9-0.3c0.4-1.3,0.8-2.5,1.2-3.8l1,0.3
				C408.1,322.6,407.7,323.9,407.3,325.1z M91.1,320c-0.4-1.3-0.8-2.6-1.1-3.9l1-0.3c0.4,1.3,0.7,2.6,1.1,3.8L91.1,320z
				 M409.7,317.4l-1-0.3c0.4-1.3,0.7-2.6,1-3.9l1,0.2C410.4,314.8,410,316.1,409.7,317.4z M89,312.3c-0.3-1.3-0.6-2.6-0.9-3.9l1-0.2
				c0.3,1.3,0.6,2.6,0.9,3.9L89,312.3z M411.7,309.6l-1-0.2c0.3-1.3,0.6-2.6,0.9-3.9l1,0.2C412.3,307,412,308.3,411.7,309.6z
				 M87.2,304.4c-0.3-1.3-0.5-2.6-0.7-4l1-0.2c0.2,1.3,0.5,2.6,0.7,3.9L87.2,304.4z M413.3,301.7l-1-0.2c0.2-1.3,0.5-2.6,0.7-4
				l1,0.2C413.7,299.1,413.5,300.4,413.3,301.7z M85.9,296.5c-0.2-1.3-0.4-2.6-0.5-4l1-0.1c0.2,1.3,0.3,2.6,0.5,4L85.9,296.5z
				 M414.5,293.8l-1-0.1c0.2-1.3,0.3-2.6,0.5-4l1,0.1C414.8,291.1,414.7,292.4,414.5,293.8z M84.9,288.5c-0.1-1.3-0.2-2.7-0.3-4
				l1-0.1c0.1,1.3,0.2,2.7,0.3,4L84.9,288.5z M415.4,285.8l-1-0.1c0.1-1.3,0.2-2.7,0.3-4l1,0.1C415.6,283.1,415.5,284.4,415.4,285.8
				z M84.3,280.5c-0.1-1.3-0.1-2.7-0.2-4l1,0c0,1.3,0.1,2.7,0.1,4L84.3,280.5z M415.8,277.7l-1,0c0-1.3,0.1-2.7,0.1-4l1,0
				C415.9,275,415.9,276.4,415.8,277.7z M85.1,272.5h-1l0-0.3c0-1.2,0-2.5,0-3.7l1,0c0,1.2,0,2.5,0,3.7L85.1,272.5z M414.9,269.7
				c0-1.3-0.1-2.7-0.1-4l1,0c0.1,1.3,0.1,2.7,0.1,4L414.9,269.7z M85.3,264.5l-1,0c0.1-1.3,0.1-2.7,0.2-4l1,0.1
				C85.4,261.8,85.3,263.2,85.3,264.5z M414.6,261.7c-0.1-1.3-0.2-2.7-0.3-4l1-0.1c0.1,1.3,0.2,2.7,0.3,4L414.6,261.7z M85.8,256.5
				l-1-0.1c0.1-1.3,0.3-2.7,0.4-4l1,0.1C86.1,253.9,86,255.2,85.8,256.5z M413.9,253.7c-0.1-1.3-0.3-2.7-0.5-4l1-0.1
				c0.2,1.3,0.3,2.7,0.5,4L413.9,253.7z M86.8,248.6l-1-0.1c0.2-1.3,0.4-2.7,0.6-4l1,0.2C87.2,245.9,87,247.3,86.8,248.6z
				 M412.8,245.8c-0.2-1.3-0.4-2.6-0.7-3.9l1-0.2c0.2,1.3,0.5,2.6,0.7,4L412.8,245.8z M88.1,240.7l-1-0.2c0.3-1.3,0.5-2.6,0.8-3.9
				l1,0.2C88.6,238.1,88.4,239.4,88.1,240.7z M411.3,237.9c-0.3-1.3-0.6-2.6-0.9-3.9l1-0.2c0.3,1.3,0.6,2.6,0.9,3.9L411.3,237.9z
				 M89.8,232.9l-1-0.2c0.3-1.3,0.7-2.6,1-3.9l1,0.3C90.5,230.3,90.1,231.6,89.8,232.9z M409.5,230.1c-0.3-1.3-0.7-2.6-1.1-3.9
				l1-0.3c0.4,1.3,0.7,2.6,1.1,3.9L409.5,230.1z M91.9,225.2l-1-0.3c0.4-1.3,0.8-2.6,1.2-3.8l1,0.3
				C92.7,222.6,92.3,223.9,91.9,225.2z M407.3,222.5c-0.4-1.3-0.8-2.5-1.3-3.8l0.9-0.3c0.4,1.3,0.9,2.5,1.3,3.8L407.3,222.5z
				 M94.4,217.5l-0.9-0.3c0.4-1.3,0.9-2.5,1.4-3.8l0.9,0.4C95.3,215,94.8,216.3,94.4,217.5z M404.7,214.9c-0.5-1.3-0.9-2.5-1.4-3.7
				l0.9-0.4c0.5,1.2,1,2.5,1.4,3.8L404.7,214.9z M97.2,210l-0.9-0.4c0.5-1.2,1-2.5,1.6-3.7l0.9,0.4C98.2,207.6,97.7,208.8,97.2,210z
				 M401.7,207.5c-0.5-1.2-1.1-2.4-1.6-3.6l0.9-0.4c0.6,1.2,1.1,2.4,1.6,3.7L401.7,207.5z M100.4,202.7l-0.9-0.4
				c0.6-1.2,1.1-2.4,1.7-3.6l0.9,0.4C101.6,200.3,101,201.5,100.4,202.7z M398.4,200.2c-0.6-1.2-1.2-2.4-1.8-3.6l0.9-0.5
				c0.6,1.2,1.2,2.4,1.8,3.6L398.4,200.2z M104,195.5l-0.9-0.5c0.6-1.2,1.3-2.4,1.9-3.5l0.9,0.5C105.2,193.2,104.6,194.3,104,195.5z
				 M394.7,193.1c-0.6-1.2-1.3-2.3-2-3.5l0.9-0.5c0.7,1.2,1.3,2.3,2,3.5L394.7,193.1z M107.9,188.5L107,188c0.7-1.2,1.4-2.3,2.1-3.4
				l0.8,0.5C109.3,186.2,108.6,187.4,107.9,188.5z M390.7,186.2c-0.7-1.1-1.4-2.3-2.1-3.4l0.8-0.5c0.7,1.1,1.4,2.3,2.1,3.4
				L390.7,186.2z M112.1,181.7l-0.8-0.5c0.7-1.1,1.5-2.2,2.3-3.3l0.8,0.6C113.6,179.5,112.9,180.6,112.1,181.7z M386.4,179.5
				c-0.8-1.1-1.5-2.2-2.3-3.3l0.8-0.6c0.8,1.1,1.5,2.2,2.3,3.3L386.4,179.5z M116.7,175.1l-0.8-0.6c0.8-1.1,1.6-2.2,2.4-3.2l0.8,0.6
				C118.3,173,117.5,174.1,116.7,175.1z M381.8,173c-0.8-1.1-1.6-2.1-2.4-3.2l0.8-0.6c0.8,1,1.7,2.1,2.5,3.2L381.8,173z
				 M121.5,168.8l-0.8-0.6c0.8-1,1.7-2.1,2.6-3.1l0.8,0.6C123.2,166.7,122.4,167.8,121.5,168.8z M376.8,166.8c-0.9-1-1.7-2-2.6-3
				l0.8-0.7c0.9,1,1.8,2,2.6,3.1L376.8,166.8z M126.7,162.7L126,162c0.9-1,1.8-2,2.7-3l0.7,0.7C128.5,160.7,127.6,161.7,126.7,162.7
				z M371.5,160.8c-0.9-1-1.8-2-2.7-2.9l0.7-0.7c0.9,1,1.8,1.9,2.8,2.9L371.5,160.8z M132.2,156.8l-0.7-0.7c0.9-1,1.9-1.9,2.8-2.8
				l0.7,0.7C134.1,154.9,133.1,155.9,132.2,156.8z M366,155c-0.9-0.9-1.9-1.9-2.9-2.8l0.7-0.7c1,0.9,1.9,1.9,2.9,2.8L366,155z
				 M137.9,151.3l-0.7-0.7c1-0.9,2-1.8,3-2.7l0.7,0.8C139.9,149.5,138.9,150.4,137.9,151.3z M360.2,149.5c-1-0.9-2-1.8-3-2.6
				l0.7-0.8c1,0.9,2,1.8,3,2.7L360.2,149.5z M143.9,146l-0.6-0.8c1-0.9,2.1-1.7,3.1-2.6l0.6,0.8C145.9,144.3,144.9,145.1,143.9,146z
				 M354.1,144.3c-1-0.8-2.1-1.7-3.1-2.5l0.6-0.8c1.1,0.8,2.1,1.7,3.2,2.5L354.1,144.3z M150.1,141l-0.6-0.8
				c1.1-0.8,2.1-1.6,3.2-2.4l0.6,0.8C152.3,139.4,151.2,140.2,150.1,141z M347.8,139.4c-1.1-0.8-2.2-1.6-3.2-2.3l0.6-0.8
				c1.1,0.8,2.2,1.6,3.3,2.4L347.8,139.4z M156.6,136.3l-0.6-0.8c1.1-0.8,2.2-1.5,3.3-2.2l0.5,0.8
				C158.8,134.8,157.7,135.5,156.6,136.3z M341.2,134.8c-1.1-0.7-2.2-1.5-3.4-2.2l0.5-0.8c1.1,0.7,2.3,1.4,3.4,2.2L341.2,134.8z
				 M163.3,131.9l-0.5-0.9c1.1-0.7,2.3-1.4,3.4-2.1l0.5,0.9C165.6,130.5,164.4,131.2,163.3,131.9z M334.4,130.5
				c-1.1-0.7-2.3-1.4-3.5-2l0.5-0.9c1.2,0.7,2.3,1.3,3.5,2L334.4,130.5z M170.2,127.9l-0.5-0.9c1.2-0.6,2.3-1.3,3.5-1.9l0.5,0.9
				C172.5,126.6,171.3,127.2,170.2,127.9z M327.5,126.6c-1.2-0.6-2.4-1.2-3.6-1.8l0.4-0.9c1.2,0.6,2.4,1.2,3.6,1.9L327.5,126.6z
				 M177.2,124.2l-0.4-0.9c1.2-0.6,2.4-1.2,3.6-1.7l0.4,0.9C179.6,123,178.4,123.6,177.2,124.2z M320.3,123
				c-1.2-0.6-2.4-1.1-3.6-1.7l0.4-0.9c1.2,0.5,2.5,1.1,3.7,1.7L320.3,123z M184.5,120.8l-0.4-0.9c1.2-0.5,2.5-1,3.7-1.5l0.4,0.9
				C186.9,119.8,185.7,120.3,184.5,120.8z M313,119.8c-1.2-0.5-2.5-1-3.7-1.5l0.4-0.9c1.3,0.5,2.5,1,3.7,1.5L313,119.8z
				 M191.9,117.8l-0.4-0.9c1.3-0.5,2.5-0.9,3.8-1.4l0.3,0.9C194.4,116.9,193.1,117.4,191.9,117.8z M305.5,116.9
				c-1.3-0.4-2.5-0.9-3.8-1.3l0.3-0.9c1.3,0.4,2.6,0.9,3.8,1.3L305.5,116.9z M199.4,115.2l-0.3-1c1.3-0.4,2.6-0.8,3.8-1.2l0.3,1
				C202,114.4,200.7,114.8,199.4,115.2z M297.9,114.4c-1.3-0.4-2.6-0.8-3.8-1.1l0.3-1c1.3,0.4,2.6,0.7,3.9,1.1L297.9,114.4z
				 M207.1,112.9l-0.3-1c1.3-0.3,2.6-0.7,3.9-1l0.2,1C209.7,112.3,208.4,112.6,207.1,112.9z M290.2,112.2c-1.3-0.3-2.6-0.6-3.9-0.9
				l0.2-1c1.3,0.3,2.6,0.6,3.9,0.9L290.2,112.2z M214.9,111.1l-0.2-1c1.3-0.3,2.6-0.6,3.9-0.8l0.2,1
				C217.5,110.5,216.2,110.8,214.9,111.1z M282.4,110.5c-1.3-0.3-2.6-0.5-3.9-0.7l0.2-1c1.3,0.2,2.6,0.5,4,0.7L282.4,110.5z
				 M222.7,109.6l-0.2-1c1.3-0.2,2.6-0.4,4-0.6l0.1,1C225.3,109.1,224,109.3,222.7,109.6z M274.5,109.1c-1.3-0.2-2.6-0.4-4-0.5
				l0.1-1c1.3,0.2,2.7,0.3,4,0.5L274.5,109.1z M230.6,108.4l-0.1-1c1.3-0.2,2.7-0.3,4-0.4l0.1,1C233.3,108.1,232,108.3,230.6,108.4z
				 M266.5,108.1c-1.3-0.1-2.7-0.2-4-0.3l0.1-1c1.3,0.1,2.7,0.2,4,0.4L266.5,108.1z M238.6,107.7l-0.1-1c1.3-0.1,2.7-0.2,4-0.2l0,1
				C241.3,107.5,239.9,107.6,238.6,107.7z M258.6,107.5c-1.3-0.1-2.7-0.1-4-0.2l0-1c1.3,0,2.7,0.1,4,0.2L258.6,107.5z M246.6,107.3
				l0-1c1.1,0,2.3,0,3.4,0l0.6,0l0,1l-0.6,0C248.9,107.3,247.7,107.3,246.6,107.3z"/>
			<path class="st2" d="M376.7,379.3l-0.8-0.6c0.4-0.5,0.9-1,1.3-1.5l0.8,0.6C377.6,378.3,377.2,378.8,376.7,379.3z"/>
		</g>
	</g>
	<g>
		<g>
			<circle class="st2" cx="70" cy="288.7" r="38.8"/>
			<path class="st2" d="M70,331.2c-23.4,0-42.5-19.1-42.5-42.5c0-23.4,19.1-42.5,42.5-42.5c23.4,0,42.5,19.1,42.5,42.5
				C112.5,312.1,93.4,331.2,70,331.2z M70,247.1c-22.9,0-41.5,18.6-41.5,41.5c0,22.9,18.6,41.5,41.5,41.5
				c22.9,0,41.5-18.6,41.5-41.5C111.5,265.8,92.9,247.1,70,247.1z"/>
		</g>
		<g>
			<g>
				<g>
					<path class="st3" d="M64.4,271.2h28.2c1.7,0,3,1.4,3,3v14.7c0,1.7-1.4,3-3,3H64.4c-1.7,0-3-1.4-3-3v-14.7
						C61.4,272.5,62.8,271.2,64.4,271.2z"/>
					<polygon class="st3" points="88.9,291.9 91.2,296.1 83.7,291.9 					"/>
				</g>
				<g>
					<g>
						<rect x="77.3" y="278.1" class="st4" width="14" height="1"/>
						<rect x="68.9" y="278.1" class="st4" width="7.1" height="1"/>
						<rect x="65.8" y="278.1" class="st4" width="1.8" height="1"/>
					</g>
					<g>
						<rect x="77.3" y="284" class="st4" width="14" height="1"/>
						<rect x="68.9" y="284" class="st4" width="7.1" height="1"/>
						<rect x="65.8" y="284" class="st4" width="1.8" height="1"/>
					</g>
					<g>
						<rect x="82.5" y="281" class="st4" width="8.7" height="1"/>
						<rect x="65.8" y="281" class="st4" width="15.5" height="1"/>
					</g>
				</g>
			</g>
			<g>
				<g>
					<path class="st5" d="M75.5,281.2H47.3c-1.7,0-3,1.4-3,3v14.7c0,1.7,1.4,3,3,3h28.2c1.7,0,3-1.4,3-3v-14.7
						C78.5,282.5,77.2,281.2,75.5,281.2z"/>
					<polygon class="st5" points="51,301.9 48.7,306.1 56.2,301.9 					"/>
				</g>
				<g>
					<g>
						<rect x="48.7" y="288.1" class="st4" width="14" height="1"/>
						<rect x="63.9" y="288.1" class="st4" width="7.1" height="1"/>
						<rect x="72.4" y="288.1" class="st4" width="1.8" height="1"/>
					</g>
					<g>
						<rect x="48.7" y="294" class="st4" width="14" height="1"/>
						<rect x="63.9" y="294" class="st4" width="7.1" height="1"/>
						<rect x="72.4" y="294" class="st4" width="1.8" height="1"/>
					</g>
					<g>
						<rect x="48.7" y="291" class="st4" width="8.7" height="1"/>
						<rect x="58.6" y="291" class="st4" width="15.5" height="1"/>
					</g>
				</g>
			</g>
		</g>
	</g>
	<g>
		<g>
			<g>
				<circle class="st2" cx="116.1" cy="154.4" r="38.8"/>
				<path class="st2" d="M116.1,196.9c-23.4,0-42.5-19.1-42.5-42.5c0-23.4,19.1-42.5,42.5-42.5s42.5,19.1,42.5,42.5
					C158.7,177.8,139.6,196.9,116.1,196.9z M116.1,112.8c-22.9,0-41.5,18.6-41.5,41.5c0,22.9,18.6,41.5,41.5,41.5
					c22.9,0,41.5-18.6,41.5-41.5C157.7,131.5,139,112.8,116.1,112.8z"/>
			</g>
		</g>
		<path class="st5" d="M133.4,160.1c0.5-1.5,0.8-3.1,0.9-4.7l-2.7-0.2l0-2l2.7-0.2c-0.1-1.6-0.4-3.2-1-4.7l-2.6,0.9l-0.8-1.9
			l2.5-1.2c-0.7-1.4-1.6-2.8-2.7-4l-2,1.8l-1.4-1.4l1.8-2.1c-1.2-1-2.6-1.9-4-2.6l-1.2,2.5l-1.9-0.7l0.8-2.6
			c-1.4-0.5-2.9-0.8-4.5-0.9l-0.2,2.7h-2l-0.2-2.7c-1.6,0.1-3.2,0.4-4.7,0.9l0.9,2.6l-1.9,0.8l-1.2-2.5c-1.4,0.7-2.8,1.6-4,2.7
			l1.8,2.1l-1.4,1.4l-2.1-1.8c-1,1.2-1.9,2.5-2.6,4l2.5,1.2l-0.8,1.9l-2.6-0.9c-0.5,1.5-0.8,3.1-0.9,4.7l2.7,0.2l0,2l-2.7,0.2
			c0.1,1.6,0.4,3.2,1,4.7l2.6-0.9l0.8,1.9l-2.5,1.2c0.7,1.4,1.6,2.8,2.7,4l2-1.8l1.4,1.4l-1.8,2.1c1.2,1,2.6,1.9,4,2.6l1.2-2.5
			l1.9,0.8l-0.8,2.6c1.4,0.5,2.9,0.8,4.5,0.9l0.2-2.7h2l0.2,2.7c1.6-0.1,3.2-0.4,4.7-0.9l-0.9-2.6l1.9-0.8l1.2,2.5
			c1.4-0.7,2.8-1.6,4-2.7l-1.8-2.1l1.4-1.4l2.1,1.8c1-1.2,1.9-2.5,2.6-4l-2.5-1.2l0.8-1.9L133.4,160.1z M116.1,164
			c-5.3,0-9.7-4.3-9.7-9.7c0-5.3,4.3-9.7,9.7-9.7c5.3,0,9.7,4.3,9.7,9.7C125.8,159.7,121.5,164,116.1,164z"/>
	</g>
	<g>
		<g>
			<g>
				<circle class="st2" cx="385" cy="154.4" r="38.8"/>
				<path class="st2" d="M385,196.9c-23.4,0-42.5-19.1-42.5-42.5c0-23.4,19.1-42.5,42.5-42.5c23.4,0,42.5,19.1,42.5,42.5
					C427.5,177.8,408.5,196.9,385,196.9z M385,112.8c-22.9,0-41.5,18.6-41.5,41.5c0,22.9,18.6,41.5,41.5,41.5
					c22.9,0,41.5-18.6,41.5-41.5C426.5,131.5,407.9,112.8,385,112.8z"/>
			</g>
		</g>
	</g>
	<g>
		<g>
			<g>
				<g>
					<circle class="st2" cx="250" cy="97.3" r="38.8"/>
					<path class="st2" d="M250,139.8c-23.4,0-42.5-19.1-42.5-42.5s19.1-42.5,42.5-42.5c23.4,0,42.5,19.1,42.5,42.5
						S273.4,139.8,250,139.8z M250,55.8c-22.9,0-41.5,18.6-41.5,41.5s18.6,41.5,41.5,41.5c22.9,0,41.5-18.6,41.5-41.5
						S272.9,55.8,250,55.8z"/>
				</g>
			</g>
		</g>
		<text transform="matrix(1 0 0 1 216.9341 105.4526)" class="st5 st6 st7">24/7</text>
	</g>
	<g>
		<g>
			<polygon class="st8" points="283.6,342.8 278,331.2 238.6,343.7 244.3,358.3 			"/>
			<path class="st8" d="M278,331.2l4.4-14.3c0.5-1.5,2-2.5,3.6-2.2l0,0c1.8,0.3,3,2,2.7,3.9l-0.9,4.1l12.7-12.1
				c0.7-0.7,1.9-0.7,2.7,0l0,0c0.7,0.7,0.8,1.8,0.2,2.6l-7,9l11.3-8.6c1-0.7,2.3-0.6,3.1,0.4l0,0c0.8,0.9,0.6,2.3-0.3,3.1l-10.5,9
				l9.9-3.3c1.2-0.4,2.4,0.5,2.4,1.7l0,0c0,0.7-0.4,1.4-1.1,1.7l-10,4.8l9.2,0.4c1,0,1.7,1,1.5,2l0,0c-0.1,0.6-0.6,1.1-1.1,1.2
				l-13.7,3.9l-13.5,4.4L278,331.2z"/>
		</g>
		<path class="st9" d="M227.3,377.3h-70.8l-3.3-92.7c0-11.1,8.2-20.1,18.4-20.1h40.8c10.1,0,18.4,9,18.4,20.1L227.3,377.3z"/>
		<path class="st10" d="M160.5,284.6l3.3,92.7h-7.4l-3.3-92.7c0-11.1,8.2-20.1,18.4-20.1h7.4C168.8,264.5,160.5,273.5,160.5,284.6z"
			/>
		<g>
			<path class="st8" d="M189,273.7L189,273.7c-4.7-0.9-8.1-5-8.1-9.8v-15.8h19.9v15.8C200.7,270.1,195.1,274.8,189,273.7z"/>
			<path class="st11" d="M190.8,265.6L190.8,265.6c-5.5,0-9.9-4.4-9.9-9.9v-7.6h19.9v7.6C200.7,261.2,196.3,265.6,190.8,265.6z"/>
			<g>
				<path class="st12" d="M220.6,175.1v42.3c0,0,21.5-10.6,16.2-29.1C231.4,169.8,220.6,175.1,220.6,175.1z"/>
				<path class="st8" d="M229.1,184.6v40.4c0,17.1-13.8,30.9-30.9,30.9h-3.1c-15.9,0-29.1-12.1-30.7-27.6c0,0,0-0.1,0-0.1
					c-0.1-1-0.2-2.1-0.2-3.1v-40.4H229.1z"/>
				<path class="st11" d="M201.8,255.4c-1.7,0.3-3.4,0.4-5.2,0.4h-1.6c-15.9,0-29.1-12.1-30.7-27.6c0,0,0-0.1,0-0.1
					c-0.1-1.5-0.2-3.1-0.2-4.7v-38.8h10.4v38.8C174.6,239.5,186.4,252.9,201.8,255.4z"/>
				<path class="st12" d="M233.5,184.5c-0.8,0.7-1.6,1.4-2.6,2.1c-2.8,2-6.6,3.8-11.5,5.2c-17.5,5.1-41.9,4-48.7,0
					c-2.6-1.5-4-4.9-4.7-8.5c-0.4-2.1-0.6-4.2-0.6-6.1c-0.1-3.3,0.1-5.8,0.1-5.8s1.5-5,9.4-5.8c0.7-0.1,1.4-0.1,2.3-0.1
					c0.9,0,2,0,3.2-0.1c7.3-0.3,20.6-1.4,32.3-1.6c2.1,0,4.1-0.1,6,0c6.5,0.1,12,0.5,14.8,1.7C237.9,167.3,241.6,176.7,233.5,184.5z
					"/>
				<path class="st13" d="M233.4,165.4c-0.2-0.1-0.4-0.1-0.5-0.2c2.6,10.3-3.6,20.7-13.5,24c-12.2,3.9-24.9,5.7-37.6,5.5
					c10.6,1.2,25.6,0.6,37.5-2.8C244.2,184.6,239.6,168,233.4,165.4z"/>
				<path class="st12" d="M160.1,180.5v36.9c0,0,21.5-10.6,16.2-29.1c-2.2-7.5-5.2-11.1-8.1-12.7
					C164.5,173.6,160.1,176.4,160.1,180.5z"/>
				<path class="st13" d="M176.2,188.3c-2.2-7.5-5.2-11.1-8.1-12.7c-2.4-1.3-5.1-0.5-6.7,1.3c12.5,5.3,13.8,21.9,8.6,33.1
					C174.8,205.1,179,197.7,176.2,188.3z"/>
				<path class="st11" d="M170.3,215.5c1.1,5.8-1.1,11-4.8,11.8c-3.8,0.7-7.7-3.4-8.8-9.2c-1.1-5.8,1.1-11,4.8-11.8
					C165.3,205.6,169.3,209.7,170.3,215.5z"/>
				<path class="st14" d="M165.3,216.5c0.4,2.2-0.4,4.2-1.8,4.4c-1.4,0.3-2.9-1.3-3.3-3.4c-0.4-2.2,0.4-4.2,1.8-4.4
					C163.4,212.7,164.9,214.3,165.3,216.5z"/>
				<g>
					<g>
						<g>
							<path class="st15" d="M190.8,209.1c0,1.7-1.4,3-3,3c-1.7,0-3-1.4-3-3c0-1.7,1.4-3,3-3C189.4,206.1,190.8,207.4,190.8,209.1z"
								/>
							<path class="st15" d="M219.4,209.1c0,1.7-1.4,3-3,3c-1.7,0-3-1.4-3-3c0-1.7,1.4-3,3-3C218,206.1,219.4,207.4,219.4,209.1z"/>
						</g>
						<g>
							<path class="st5" d="M187.7,209.1c0,0.3-0.9,0.5-2,0.5s-2-0.2-2-0.5c0-0.3,0.9-0.5,2-0.5S187.7,208.8,187.7,209.1z"/>
							<path class="st5" d="M216.1,209.1c0,0.3-0.9,0.5-2,0.5c-1.1,0-2-0.2-2-0.5c0-0.3,0.9-0.5,2-0.5
								C215.2,208.5,216.1,208.8,216.1,209.1z"/>
						</g>
						<path class="st16" d="M203.5,216.5c0-0.5,0-1,0-1.5c0-1.8-0.3-3.6,0-5.4c0-0.1,0.1-0.3,0.1-0.4c0.2-0.3,0.6,0,0.8,0.3
							c1.3,1.6,2.4,3.5,3.5,5.3c0.8,1.3,1.6,2.7,2.4,4c0.5,0.9,1.1,1.8,1.3,2.9c0.9,5.3-6.4,5.2-8.8,4.4c-1-0.3-2.1-1.1-2.1-2.4
							c-0.1-1.4,1.1-2.4,1.8-3.6C203.2,219.1,203.5,217.8,203.5,216.5z"/>
						<path class="st5" d="M214.9,232.9c-0.7,2.5-2.1,4.7-4.1,6.3c-0.3,0.3-0.6,0.5-1,0.7c-2,1.3-4.4,2.1-6.9,2.1
							c-4.5,0-8.4-2.3-10.6-5.8c-0.4-0.7-0.8-1.3-1-2.1c-0.2-0.4-0.3-0.8-0.4-1.2H214.9z"/>
						<path class="st17" d="M210.8,239.1c-0.3,0.3-0.6,0.5-1,0.7c-2,1.3-4.4,2.1-6.9,2.1c-4.5,0-8.4-2.3-10.6-5.8
							c2-0.8,4.5-1.2,7.2-1.2C204.7,234.9,209.2,236.7,210.8,239.1z"/>
						<path class="st16" d="M198.3,243.7c0,0,3,1.6,9,0C207.3,243.7,201.8,247,198.3,243.7z"/>
					</g>
					<g>
						<path class="st12" d="M194.7,203.1l0.2-0.6c0.3-0.8-0.4-1.7-1.3-1.7h-10c-0.3,0-0.7,0.1-0.9,0.3l0,0c-0.9,0.8-0.4,2.2,0.8,2.3
							l9.8,0.6C193.9,204.1,194.5,203.7,194.7,203.1z"/>
						<path class="st12" d="M210.8,203.1l-0.2-0.6c-0.3-0.8,0.4-1.7,1.3-1.7h10c0.3,0,0.7,0.1,0.9,0.3l0,0c0.9,0.8,0.4,2.2-0.8,2.3
							l-9.8,0.6C211.6,204.1,211,203.7,210.8,203.1z"/>
					</g>
				</g>
			</g>
		</g>
		<path class="st9" d="M151.2,353.4l-21-6.9l21.8-66.7c3.8-11.6,16.3-18,27.9-14.2l0,0L151.2,353.4z"/>
		<path class="st9" d="M231.1,347.4l21-7.1l-21-61.5c-3.9-11.6-15-16.9-26.6-13h0l0,0L231.1,347.4z"/>
		<path class="st9" d="M257.5,336.8l6.8,21.1l-6,1.9c-11.6,3.8-24.1-2.6-27.9-14.2l0,0L257.5,336.8z"/>
		<path class="st18" d="M180.8,260.4c0,0,3.2,10.8,11.5,13.4l-14.6,12.9l-3.7-21.8L180.8,260.4z"/>
		<path class="st18" d="M200.8,260.4c0,0-0.6,10.8-8.9,13.4l14.6,12.9l1.2-21.8L200.8,260.4z"/>
		<g>
			<g>
				<polygon class="st8" points="188.5,359.5 184.9,371.9 144,366.1 147.2,350.9 				"/>
			</g>
			<g>
				<path class="st9" d="M158,352.2l-4.5,21.7l-6.1-1.3c-12-2.5-19.7-14.2-17.2-26.2l0,0L158,352.2z"/>
				<path class="st18" d="M154.6,377.2l-4.5-1c-1.5-0.3-2.4-1.8-2.1-3.3l5-21.5c0.3-1.5,1.8-2.4,3.3-2.1l4.5,1
					c1.5,0.3,2.4,1.8,2.1,3.3l-5,21.5C157.6,376.6,156.1,377.5,154.6,377.2z"/>
			</g>
		</g>
		<path class="st18" d="M270.7,358.4l-4.4,1.5c-1.5,0.5-3-0.3-3.5-1.8l-6.9-20.9c-0.5-1.5,0.3-3,1.8-3.5l4.4-1.5
			c1.5-0.5,3,0.3,3.5,1.8l6.9,20.9C272.9,356.3,272.1,357.9,270.7,358.4z"/>
		<g>
			<g>
				<path class="st19" d="M202.7,239.9l-26.3-2.7c-5.5-0.6-10.4-3.7-13.3-8.3l2.5-1.6c2.4,3.9,6.6,6.5,11.1,6.9L203,237L202.7,239.9
					z"/>
				<path class="st20" d="M207.7,237.9c0,2-2.2,3.5-4.9,3.5c-2.7,0-4.9-1.6-4.9-3.5s2.2-3.5,4.9-3.5
					C205.5,234.4,207.7,236,207.7,237.9z"/>
				<ellipse class="st19" cx="196.6" cy="237.9" rx="2.7" ry="2.5"/>
			</g>
			<path class="st19" d="M198.4,157.5h-0.9c-8.6,0-16.5,3-22.7,8c-3.9,3.2-7.2,7.1-9.6,11.7c-2.6,5-4,10.6-4,16.6v13.7h3v-13.7
				c0-3.7,0.6-7.2,1.7-10.5c2.5-7.6,7.7-13.9,14.4-18c5-3,10.9-4.8,17.2-4.8h0.9c5.1,0,9.9,1.2,14.2,3.2c2.1,0,4.1-0.1,6,0
				C212.8,159.8,205.9,157.5,198.4,157.5z"/>
			<g>
				<ellipse class="st19" cx="162.8" cy="216.8" rx="10.7" ry="12.2"/>
				<ellipse class="st20" cx="159.6" cy="216.8" rx="7.5" ry="8.5"/>
			</g>
		</g>
	</g>
	<g>
		<g id="XMLID_28921_">
			<g id="XMLID_28980_">
				<rect id="XMLID_29037_" x="215.4" y="369.6" class="st5" width="93.8" height="3.8"/>
			</g>
			<g id="XMLID_28922_">
				<rect id="XMLID_28979_" x="192.9" y="369.6" class="st21" width="33.8" height="3.8"/>
			</g>
		</g>
		<g id="XMLID_1593_">
			<g id="XMLID_30_">
				<g id="XMLID_37_">
					<path id="XMLID_38_" class="st21" d="M384.5,242.9c0-4-3.2-8.5-7.3-8.5H243.1c-4,0-7.3,4.5-7.3,8.5l-10.9,90
						c0,4,3.2,6.6,7.3,6.6h134.2c4,0,7.3-2.6,7.3-6.6L384.5,242.9z"/>
				</g>
			</g>
			<g id="XMLID_28804_">
				<g id="XMLID_28863_">
					<path id="XMLID_28920_" class="st22" d="M388.3,242.9c0-4-3.2-8.5-7.3-8.5H246.8c-4,0-7.3,4.5-7.3,8.5l-10.9,90
						c0,4,3.2,6.6,7.3,6.6h134.2c4,0,7.3-2.6,7.3-6.6L388.3,242.9z"/>
				</g>
			</g>
			<g id="XMLID_28687_">
				<g id="XMLID_28746_">
					<path id="XMLID_28803_" class="st21" d="M306.2,320.8h-3l9.2,46.5c0.3,1.6-0.9,2.3-2.5,2.3H298v3.8h14.9c1.6,0,2.8-1.4,2.5-3
						L306.2,320.8z"/>
				</g>
				<g id="XMLID_28688_">
					<g>
						<path id="XMLID_42_" class="st5" d="M339.5,370.4c0.3,1.5-0.9,2.9-2.4,2.9h-24.3c1.5,0,2.7-1.4,2.4-2.9l-9.6-49.7h24.2
							L339.5,370.4z"/>
					</g>
				</g>
			</g>
			<g id="XMLID_1594_">
				<g>
					<path id="XMLID_43_" class="st5" d="M327.2,284.3c-0.4,7.5-5.9,13.3-12.4,13c-4.6-0.2-8.5-3.5-10.2-8.1
						c1.6,1.1,3.4,1.7,5.4,1.8c6.5,0.3,12.1-5.5,12.4-13c0.1-2.1-0.2-4.1-0.9-5.9C325.1,274.5,327.4,279.1,327.2,284.3z"/>
				</g>
			</g>
		</g>
	</g>
	<g>
		<path class="st2" d="M430,380.4c0,2-0.8,3.9-2.1,5.2c-1.3,1.3-3.2,2.2-5.2,2.2H77.3c-4.1,0-7.3-3.3-7.3-7.3c0-2,0.8-3.9,2.2-5.2
			c1.3-1.3,3.2-2.1,5.2-2.1h345.4C426.7,373,430,376.3,430,380.4z"/>
		<g>
			<path class="st2" d="M53.3,387.7h-7.6c-4.1,0-7.3-3.3-7.3-7.3l0,0c0-4.1,3.3-7.3,7.3-7.3h7.6c4.1,0,7.3,3.3,7.3,7.3l0,0
				C60.6,384.4,57.4,387.7,53.3,387.7z"/>
			<path class="st2" d="M454.3,387.7h-7.6c-4.1,0-7.3-3.3-7.3-7.3l0,0c0-4.1,3.3-7.3,7.3-7.3h7.6c4.1,0,7.3,3.3,7.3,7.3l0,0
				C461.7,384.4,458.4,387.7,454.3,387.7z"/>
		</g>
	</g>
	<g>
		<ellipse class="st5" cx="385" cy="154.4" rx="18.7" ry="14.2"/>
		<path class="st5" d="M369.9,162.6c0,0-0.9,2.9-6.5,5.9c0,0,7.3,1.7,13-2.9L369.9,162.6z"/>
		<text transform="matrix(1 0 0 1 382.6767 162.6076)" class="st23 st24 st25">!</text>
	</g>
	<g>
		<g>
			<g>
				<g>
					<circle class="st2" cx="428.7" cy="288.7" r="38.8"/>
					<path class="st2" d="M428.7,331.2c-23.4,0-42.5-19.1-42.5-42.5c0-23.4,19.1-42.5,42.5-42.5c23.4,0,42.5,19.1,42.5,42.5
						C471.2,312.1,452.1,331.2,428.7,331.2z M428.7,247.1c-22.9,0-41.5,18.6-41.5,41.5c0,22.9,18.6,41.5,41.5,41.5
						c22.9,0,41.5-18.6,41.5-41.5C470.2,265.8,451.6,247.1,428.7,247.1z"/>
				</g>
			</g>
		</g>
		<g>
			<rect x="409" y="286.3" class="st5" width="39.3" height="22.8"/>
			<polygon class="st26" points="448.3,286.3 443.7,289.6 428.7,300.5 413.7,289.6 409,286.3 			"/>
			<polygon class="st26" points="428.7,272 409,286.3 448.3,286.3 			"/>
			<polygon class="st3" points="443.7,268.2 443.7,289.6 428.7,300.5 413.7,289.6 413.7,268.2 			"/>
			<g>
				<g>
					<rect x="427.4" y="277.1" class="st4" width="14" height="1"/>
					<rect x="419" y="277.1" class="st4" width="7.1" height="1"/>
					<rect x="416" y="277.1" class="st4" width="1.8" height="1"/>
				</g>
				<g>
					<rect x="427.4" y="283" class="st4" width="14" height="1"/>
					<rect x="419" y="283" class="st4" width="7.1" height="1"/>
					<rect x="416" y="283" class="st4" width="1.8" height="1"/>
				</g>
				<g>
					<rect x="427.4" y="290.1" class="st4" width="10.3" height="1"/>
					<rect x="419" y="290.1" class="st4" width="7.1" height="1"/>
					<rect x="416" y="290.1" class="st4" width="1.8" height="1"/>
				</g>
				<g>
					<rect x="432.7" y="280.1" class="st4" width="8.7" height="1"/>
					<rect x="416" y="280.1" class="st4" width="15.5" height="1"/>
				</g>
				<g>
					<rect x="432.7" y="287.3" class="st4" width="8.7" height="1"/>
					<rect x="416" y="287.3" class="st4" width="15.5" height="1"/>
				</g>
				<rect x="416" y="272.6" class="st4" width="6.6" height="1"/>
			</g>
		</g>
	</g>
	<path class="st8" d="M213.6,371c-0.2,0.3-0.6,0.4-1,0.3l-6.6-2.5l2.2,2c0.3,0.3,0.4,0.8,0.1,1.2l0,0c-0.3,0.3-0.7,0.4-1,0.2
		c-1.5-0.7-5.4-2.5-6.2-2.3c-1.1,0.2-7.7,4.3-16,2c0,0-2.3-7.2,0-13.2c0,0,16.2-0.7,18.5-0.4c1.9,0.3,8.7,3.8,11.3,5.1
		c0.5,0.3,0.7,0.9,0.4,1.4l0,0c-0.2,0.4-0.7,0.5-1.1,0.4l-6.7-2.2l7.8,3.8c0.4,0.2,0.7,0.7,0.5,1.2l0,0c-0.2,0.5-0.7,0.8-1.3,0.6
		l-7.5-2.8l6.5,3.9C213.8,370,213.9,370.6,213.6,371L213.6,371z"/>
</g>
<g id="DESIGNED_BY_FREEPIK">
</g>
</svg>
